<svg width="53" height="18" viewBox="0 0 53 18" fill="none" xmlns="http://www.w3.org/2000/svg">
<path d="M5.90597 0.0808411H8.85352L14.0022 13.785H11.1503L10.0211 10.5121H4.73843L3.60918 13.785H0.757324L5.90597 0.0808411ZM9.1789 8.13875L7.95394 4.7127L7.45631 3.04753H7.30319L6.80555 4.7127L5.58059 8.13875H9.1789Z" fill="#2535A8"/>
<path d="M14.8252 13.785V0.0807953H17.3325V13.785H14.8252Z" fill="#2535A8"/>
<path d="M18.9214 4.40641H21.2756V5.53567H21.4287C21.6584 5.14011 22.0157 4.80197 22.5006 4.52125C22.9854 4.24054 23.5852 4.10017 24.2997 4.10017C24.8994 4.10017 25.4704 4.22458 26.0127 4.4734C26.555 4.72222 27.0335 5.06674 27.4482 5.50696C27.8629 5.94718 28.1915 6.47352 28.4339 7.086C28.6764 7.69848 28.7976 8.36838 28.7976 9.09569C28.7976 9.82301 28.6764 10.4929 28.4339 11.1054C28.1915 11.7179 27.8629 12.2442 27.4482 12.6844C27.0335 13.1246 26.555 13.4692 26.0127 13.718C25.4704 13.9668 24.8994 14.0912 24.2997 14.0912C23.5852 14.0912 22.9854 13.9508 22.5006 13.6701C22.0157 13.3894 21.6584 13.0513 21.4287 12.6557H21.2756L21.4287 13.9955V17.9192H18.9214V4.40641ZM23.7829 11.7753C24.1147 11.7753 24.4305 11.7115 24.7304 11.5839C25.0302 11.4563 25.295 11.2776 25.5247 11.048C25.7543 10.8183 25.9394 10.5376 26.0797 10.2058C26.2201 9.87405 26.2903 9.50401 26.2903 9.09569C26.2903 8.68737 26.2201 8.31734 26.0797 7.98558C25.9394 7.65382 25.7543 7.3731 25.5247 7.14342C25.295 6.91374 25.0302 6.7351 24.7304 6.6075C24.4305 6.4799 24.1147 6.4161 23.7829 6.4161C23.4512 6.4161 23.1354 6.47671 22.8355 6.59793C22.5356 6.71915 22.2709 6.8946 22.0412 7.12428C21.8115 7.35396 21.6265 7.63468 21.4861 7.96643C21.3458 8.29819 21.2756 8.67461 21.2756 9.09569C21.2756 9.51677 21.3458 9.89319 21.4861 10.2249C21.6265 10.5567 21.8115 10.8374 22.0412 11.0671C22.2709 11.2968 22.5356 11.4722 22.8355 11.5935C23.1354 11.7147 23.4512 11.7753 23.7829 11.7753Z" fill="#2535A8"/>
<path d="M38.8075 11.5265C38.3736 12.2921 37.7899 12.911 37.0562 13.3831C36.3225 13.8552 35.4261 14.0913 34.367 14.0913C33.6525 14.0913 32.9921 13.9668 32.386 13.718C31.7799 13.4692 31.2536 13.1215 30.807 12.6749C30.3604 12.2283 30.0127 11.702 29.7639 11.0959C29.515 10.4898 29.3906 9.82306 29.3906 9.09574C29.3906 8.41946 29.5118 7.77828 29.7543 7.17218C29.9967 6.56608 30.3349 6.03654 30.7687 5.58356C31.2025 5.13058 31.7161 4.77012 32.3095 4.50216C32.9028 4.2342 33.5568 4.10022 34.2713 4.10022C35.0241 4.10022 35.694 4.22463 36.281 4.47345C36.868 4.72227 37.3592 5.06679 37.7548 5.507C38.1503 5.94722 38.4502 6.46719 38.6544 7.06691C38.8585 7.66663 38.9606 8.31738 38.9606 9.01918C38.9606 9.1085 38.9606 9.18506 38.9606 9.24886C38.9478 9.32542 38.9415 9.3956 38.9415 9.4594C38.9287 9.5232 38.9223 9.59338 38.9223 9.66994H31.8597C31.9107 10.0527 32.016 10.3813 32.1755 10.6556C32.335 10.93 32.5328 11.1597 32.7688 11.3447C33.0049 11.5297 33.2633 11.6637 33.544 11.7466C33.8247 11.8296 34.1118 11.871 34.4053 11.871C34.9795 11.871 35.4548 11.7402 35.8312 11.4787C36.2076 11.2171 36.5043 10.8885 36.7212 10.493L38.8075 11.5265ZM36.5298 7.88992C36.5171 7.72405 36.4628 7.53902 36.3671 7.33487C36.2714 7.13071 36.1311 6.93931 35.9461 6.76067C35.761 6.58203 35.5314 6.43529 35.257 6.32045C34.9827 6.20561 34.6541 6.14819 34.2713 6.14819C33.7354 6.14819 33.2633 6.30131 32.855 6.60755C32.4466 6.91379 32.1595 7.34125 31.9937 7.88992H36.5298Z" fill="#2535A8"/>
<path d="M42.2338 9.01918L39.0183 4.40646H41.985L43.6884 7.00949H43.8224L45.4301 4.40646H48.4925L45.2005 9.01918L48.4925 13.785H45.545L43.7841 11.1054H43.6501L41.9467 13.785H38.98L42.2338 9.01918Z" fill="#2535A8"/>
</svg>
