<svg width="44" height="44" viewBox="0 0 44 44" fill="none" xmlns="http://www.w3.org/2000/svg">
<path d="M30.842 36.694L27.0682 29.79C25.9607 30.5334 24.7114 31.0396 23.3988 31.2769L27.2769 38.3635L29.1899 41.859L29.216 41.9025L29.5464 41.7199L32.668 40.0156L30.842 36.694Z" fill="#3BABF1"/>
<path d="M21.6163 0H0V31.4419H11.7907V35.3722H15.721V31.4419H21.6163C22.2142 31.4403 22.8108 31.385 23.3988 31.2767C24.711 31.0379 25.96 30.5318 27.0682 29.7898C28.2211 29.0197 29.1988 28.0154 29.9377 26.8422C30.9251 25.2784 31.4469 23.4658 31.4419 21.6163C31.4419 19.0104 30.4067 16.5112 28.5641 14.6686C26.7214 12.8259 24.2222 11.7907 21.6163 11.7907H11.7907V27.5117H3.93024V3.93024H21.6163C31.3637 3.93024 39.3024 11.8603 39.3024 21.6163C39.3027 23.9694 38.8321 26.2987 37.9181 28.4671C37.0042 30.6354 35.6655 32.5989 33.9809 34.2418L35.9287 37.8068C38.2261 35.7821 40.0652 33.2907 41.3232 30.4987C42.5812 27.7068 43.2292 24.6786 43.2239 21.6163C43.2326 9.67778 33.5549 0 21.6163 0ZM15.721 15.721H21.6163C23.1794 15.7223 24.6782 16.3439 25.7834 17.4492C26.8887 18.5545 27.5103 20.0532 27.5117 21.6163C27.5105 21.8546 27.4959 22.0927 27.4682 22.3293C27.2926 23.7582 26.6008 25.0736 25.5231 26.0281C24.4453 26.9825 23.0559 27.5101 21.6163 27.5117H15.721V15.721Z" fill="#565659"/>
<path d="M21.6164 39.3025H4.57764e-05V43.2328H21.6164C22.8461 43.2305 24.0734 43.1258 25.2858 42.9197L23.2685 39.2242C22.7207 39.2677 22.1729 39.3025 21.6164 39.3025Z" fill="#565659"/>
</svg>
