<svg width="637" height="230" viewBox="0 0 637 230" fill="none" xmlns="http://www.w3.org/2000/svg">
<path d="M315.829 65H338.059L376.888 168.352H355.38L346.864 143.669H307.024L298.508 168.352H277L315.829 65ZM340.512 125.77L331.274 99.9318L327.521 87.3737H326.366L322.613 99.9318L313.375 125.77H340.512Z" fill="#2535A8"/>
<path d="M383.095 168.352V65H402.004V168.352H383.095Z" fill="#2535A8"/>
<path d="M413.985 97.623H431.739V106.139H432.894C434.626 103.156 437.321 100.606 440.978 98.4891C444.634 96.372 449.157 95.3135 454.546 95.3135C459.069 95.3135 463.375 96.2517 467.465 98.1282C471.555 100.005 475.164 102.603 478.291 105.923C481.419 109.243 483.897 113.212 485.725 117.832C487.553 122.451 488.467 127.503 488.467 132.988C488.467 138.473 487.553 143.525 485.725 148.144C483.897 152.763 481.419 156.733 478.291 160.053C475.164 163.373 471.555 165.971 467.465 167.848C463.375 169.724 459.069 170.662 454.546 170.662C449.157 170.662 444.634 169.604 440.978 167.487C437.321 165.37 434.626 162.82 432.894 159.836H431.739L432.894 169.941V199.532H413.985V97.623ZM450.649 153.196C453.151 153.196 455.532 152.715 457.794 151.753C460.055 150.791 462.052 149.443 463.784 147.711C465.516 145.979 466.912 143.862 467.97 141.36C469.029 138.858 469.558 136.067 469.558 132.988C469.558 129.909 469.029 127.118 467.97 124.616C466.912 122.114 465.516 119.997 463.784 118.265C462.052 116.532 460.055 115.185 457.794 114.223C455.532 113.261 453.151 112.779 450.649 112.779C448.147 112.779 445.765 113.236 443.504 114.151C441.242 115.065 439.245 116.388 437.513 118.12C435.781 119.852 434.386 121.969 433.327 124.471C432.269 126.973 431.739 129.812 431.739 132.988C431.739 136.164 432.269 139.002 433.327 141.504C434.386 144.006 435.781 146.123 437.513 147.856C439.245 149.588 441.242 150.911 443.504 151.825C445.765 152.739 448.147 153.196 450.649 153.196Z" fill="#2535A8"/>
<path d="M563.961 151.32C560.689 157.094 556.286 161.761 550.753 165.322C545.22 168.882 538.459 170.662 530.472 170.662C525.083 170.662 520.103 169.724 515.532 167.848C510.961 165.971 506.992 163.349 503.624 159.981C500.256 156.613 497.633 152.643 495.757 148.072C493.88 143.501 492.942 138.473 492.942 132.988C492.942 127.888 493.856 123.052 495.685 118.481C497.513 113.91 500.063 109.917 503.335 106.5C506.607 103.084 510.48 100.366 514.955 98.3447C519.43 96.3239 524.362 95.3135 529.751 95.3135C535.428 95.3135 540.48 96.2517 544.907 98.1282C549.334 100.005 553.038 102.603 556.022 105.923C559.005 109.243 561.266 113.164 562.806 117.687C564.346 122.21 565.115 127.118 565.115 132.411C565.115 133.084 565.115 133.662 565.115 134.143C565.019 134.72 564.971 135.249 564.971 135.73C564.875 136.212 564.827 136.741 564.827 137.318H511.563C511.948 140.205 512.742 142.683 513.945 144.752C515.147 146.821 516.639 148.553 518.419 149.949C520.2 151.344 522.148 152.354 524.265 152.98C526.382 153.605 528.548 153.918 530.761 153.918C535.091 153.918 538.676 152.932 541.515 150.959C544.354 148.986 546.591 146.508 548.227 143.525L563.961 151.32ZM546.783 123.894C546.687 122.643 546.278 121.248 545.556 119.708C544.835 118.168 543.776 116.725 542.381 115.378C540.985 114.03 539.253 112.924 537.184 112.058C535.115 111.192 532.637 110.759 529.751 110.759C525.709 110.759 522.148 111.913 519.069 114.223C515.99 116.532 513.824 119.756 512.573 123.894H546.783Z" fill="#2535A8"/>
<path d="M589.799 132.41L565.548 97.6221H587.922L600.769 117.253H601.779L613.904 97.6221H637L612.172 132.41L637 168.352H614.771L601.491 148.143H600.48L587.633 168.352H565.26L589.799 132.41Z" fill="#2535A8"/>
<path d="M205.061 230L172.732 172.829C160.81 184.793 145.963 193.818 129.369 198.794L147.017 230H205.061Z" fill="#2535A8"/>
<path d="M102.655 48.9367L102.531 48.7148L102.42 48.9228L73.5154 100.036L102.572 151.412C121.079 150.427 136.98 139.628 145.187 124.129L102.655 48.9367Z" fill="#2535A8"/>
<path d="M56.852 230H0L42.8781 154.184H99.7163L56.852 230Z" fill="#8FADED"/>
<path d="M190.255 143.191C190.283 143.149 190.297 143.094 190.325 143.052C190.962 141.707 191.572 140.335 192.155 138.962C192.196 138.865 192.252 138.754 192.293 138.657C192.848 137.313 193.375 135.968 193.874 134.596C193.929 134.443 193.985 134.304 194.04 134.152C194.511 132.849 194.941 131.546 195.357 130.215C195.426 129.993 195.509 129.771 195.579 129.549C195.967 128.288 196.313 127.012 196.646 125.737C196.729 125.446 196.813 125.141 196.896 124.85C197.201 123.63 197.478 122.396 197.741 121.148C197.825 120.788 197.922 120.428 197.991 120.053C198.24 118.847 198.435 117.627 198.629 116.407C198.698 115.991 198.781 115.589 198.85 115.187C199.031 114.023 199.155 112.845 199.294 111.666C199.349 111.195 199.419 110.723 199.474 110.238C199.599 109.06 199.668 107.868 199.738 106.662C199.765 106.176 199.821 105.705 199.849 105.22C199.932 103.542 199.973 101.851 199.973 100.146C199.973 45.831 156.527 1.46947 102.558 0V46.1359C131.102 47.5915 153.879 71.2556 153.879 100.16C153.879 101.255 153.837 102.35 153.768 103.418C153.754 103.723 153.726 104.028 153.699 104.333C153.629 105.164 153.546 105.996 153.449 106.814C153.421 107.078 153.38 107.355 153.352 107.618C153.047 109.781 152.617 111.902 152.077 113.967C152.021 114.175 151.966 114.369 151.91 114.577C151.661 115.492 151.384 116.407 151.079 117.308C151.037 117.433 150.995 117.544 150.968 117.669C150.247 119.762 149.401 121.814 148.431 123.782C148.389 123.879 148.334 123.976 148.292 124.074C147.807 125.044 147.308 126 146.767 126.943C145.7 128.815 144.521 130.603 143.246 132.322C143.204 132.377 143.149 132.447 143.107 132.502C142.511 133.306 141.888 134.083 141.25 134.845C141.208 134.9 141.167 134.942 141.125 134.998C139.073 137.437 136.8 139.683 134.36 141.721C134.304 141.763 134.249 141.818 134.194 141.86C131.726 143.898 129.064 145.727 126.264 147.308C126.236 147.322 126.222 147.336 126.195 147.349C119.554 151.079 112.054 153.449 104.069 154.073C103.57 154.115 103.071 154.156 102.558 154.184V200.32C113.371 200.029 123.755 197.977 133.445 194.511C133.819 194.373 134.194 194.248 134.568 194.109C135.4 193.804 136.231 193.485 137.063 193.153C137.23 193.083 137.396 193.014 137.562 192.945C139.129 192.307 140.681 191.614 142.22 190.907C142.664 190.699 143.094 190.491 143.523 190.283C144.258 189.923 144.979 189.562 145.7 189.188C146.213 188.924 146.726 188.633 147.239 188.356C148.32 187.774 149.387 187.178 150.441 186.554C150.982 186.235 151.508 185.916 152.035 185.597C152.645 185.223 153.241 184.849 153.851 184.461C154.655 183.948 155.459 183.407 156.25 182.866C156.901 182.423 157.539 181.965 158.176 181.508C158.8 181.064 159.424 180.607 160.034 180.135C160.519 179.761 161.018 179.401 161.504 179.012C162.446 178.278 163.361 177.529 164.276 176.767C164.664 176.434 165.053 176.087 165.441 175.755C166.106 175.172 166.758 174.59 167.409 174.008C167.825 173.634 168.227 173.259 168.629 172.871C169.53 172.026 170.404 171.166 171.277 170.279C179.013 162.405 185.445 153.255 190.255 143.191Z" fill="#2D67EB"/>
</svg>
