<svg width="239" height="20" viewBox="0 0 239 20" fill="none" xmlns="http://www.w3.org/2000/svg">
<path d="M0.7 0.999999H5.9C7.47333 0.999999 8.71333 1.22667 9.62 1.68C10.54 2.13333 11.2 2.86667 11.6 3.88C12.0133 4.88 12.22 6.25333 12.22 8C12.22 9.74667 12.0133 11.1267 11.6 12.14C11.2 13.14 10.54 13.8667 9.62 14.32C8.71333 14.7733 7.47333 15 5.9 15H0.7V0.999999ZM5.9 12.8C6.78 12.8 7.47333 12.6467 7.98 12.34C8.48667 12.0333 8.84667 11.5333 9.06 10.84C9.28667 10.1467 9.4 9.2 9.4 8C9.4 6.8 9.28667 5.85333 9.06 5.16C8.84667 4.46667 8.48667 3.96667 7.98 3.66C7.47333 3.35333 6.78 3.2 5.9 3.2H3.52V12.8H5.9ZM23.4888 5.6V15.88C23.4888 17.1867 23.1288 18.1333 22.4088 18.72C21.7021 19.3067 20.5487 19.6 18.9487 19.6H16.3087V17.6H18.9487C19.6287 17.6 20.1221 17.4667 20.4287 17.2C20.7354 16.9333 20.8887 16.4933 20.8887 15.88V13.74C20.2754 14.7133 19.3221 15.2 18.0287 15.2C16.9754 15.2 16.1621 14.92 15.5887 14.36C15.0154 13.8 14.7287 13 14.7287 11.96V8.5C14.7287 8.14 14.6554 7.84667 14.5087 7.62C14.3754 7.39333 14.1287 7.14667 13.7687 6.88L15.5087 5.36C16.1887 5.70667 16.6621 6.10667 16.9287 6.56C17.1954 7 17.3287 7.62 17.3287 8.42V11.72C17.3287 12.1733 17.4554 12.5333 17.7087 12.8C17.9754 13.0667 18.3354 13.2 18.7888 13.2C19.4021 13.2 19.8621 13 20.1687 12.6C20.4887 12.2 20.7288 11.6733 20.8887 11.02V5.6H23.4888ZM31.3911 5.36C32.4178 5.36 33.2044 5.64 33.7511 6.2C34.3111 6.76 34.5911 7.56 34.5911 8.6V15H31.9911V8.84C31.9911 8.38667 31.8644 8.02667 31.6111 7.76C31.3711 7.49333 31.0444 7.36 30.6311 7.36C29.7511 7.36 29.1178 7.88 28.7311 8.92V15H26.1311V8.5C26.1311 8.14 26.0578 7.84667 25.9111 7.62C25.7778 7.39333 25.5311 7.14667 25.1711 6.88L26.9111 5.36C27.3378 5.57333 27.6711 5.8 27.9111 6.04C28.1644 6.28 28.3578 6.56 28.4911 6.88C28.7711 6.42667 29.1444 6.06 29.6111 5.78C30.0911 5.5 30.6844 5.36 31.3911 5.36ZM45.2544 12.1C45.2544 12.46 45.321 12.7533 45.4544 12.98C45.601 13.2067 45.8544 13.4533 46.2144 13.72L44.4744 15.24C43.7144 14.8533 43.1944 14.3667 42.9144 13.78C42.621 14.1933 42.221 14.54 41.7144 14.82C41.2077 15.1 40.581 15.24 39.8344 15.24C38.8877 15.24 38.1344 15 37.5744 14.52C37.0144 14.0267 36.7344 13.3333 36.7344 12.44C36.7344 11.64 36.941 11.0267 37.3544 10.6C37.781 10.16 38.2677 9.86 38.8144 9.7C39.361 9.54 39.9677 9.42667 40.6344 9.36L41.5944 9.26C41.981 9.22 42.2477 9.15333 42.3944 9.06C42.5544 8.96667 42.641 8.81333 42.6544 8.6C42.6277 8.2 42.4944 7.86 42.2544 7.58C42.0277 7.3 41.5877 7.16 40.9344 7.16C40.5077 7.16 40.1344 7.24 39.8144 7.4C39.4944 7.56 39.1677 7.82 38.8344 8.18L37.0544 6.94C37.441 6.43333 37.9277 6.04667 38.5144 5.78C39.101 5.5 39.9077 5.36 40.9344 5.36C43.8144 5.36 45.2544 6.52667 45.2544 8.86V12.1ZM40.4944 13.38C41.1877 13.38 41.721 13.2133 42.0944 12.88C42.4677 12.5333 42.6544 12.1133 42.6544 11.62V10.78C42.441 10.86 42.0344 10.9333 41.4344 11L40.8344 11.06C40.381 11.1 40.001 11.2067 39.6944 11.38C39.3877 11.54 39.2344 11.8467 39.2344 12.3C39.2344 12.6467 39.3477 12.9133 39.5744 13.1C39.801 13.2867 40.1077 13.38 40.4944 13.38ZM58.5741 5.36C59.5474 5.36 60.2874 5.64 60.7941 6.2C61.3141 6.76 61.5741 7.56 61.5741 8.6V15H58.9741V8.84C58.9741 8.38667 58.8674 8.02667 58.6541 7.76C58.4541 7.49333 58.1741 7.36 57.8141 7.36C57.0274 7.36 56.4474 7.86 56.0741 8.86V15H53.4741V8.84C53.4741 8.38667 53.3674 8.02667 53.1541 7.76C52.9541 7.49333 52.6741 7.36 52.3141 7.36C51.5274 7.36 50.9474 7.86 50.5741 8.86V15H47.9741V8.5C47.9741 8.14 47.9007 7.84667 47.7541 7.62C47.6207 7.39333 47.3741 7.14667 47.0141 6.88L48.7541 5.36C49.5541 5.74667 50.0807 6.25333 50.3341 6.88C50.9607 5.86667 51.8741 5.36 53.0741 5.36C53.7407 5.36 54.3007 5.5 54.7541 5.78C55.2207 6.04667 55.5607 6.44 55.7741 6.96C56.3741 5.89333 57.3074 5.36 58.5741 5.36ZM65.5759 4.34C65.1626 4.34 64.8093 4.19333 64.5159 3.9C64.2226 3.60667 64.0759 3.25333 64.0759 2.84C64.0759 2.44 64.2226 2.09333 64.5159 1.8C64.8093 1.49333 65.1626 1.34 65.5759 1.34C65.9759 1.34 66.3226 1.49333 66.6159 1.8C66.9226 2.09333 67.0759 2.44 67.0759 2.84C67.0759 3.25333 66.9226 3.60667 66.6159 3.9C66.3226 4.19333 65.9759 4.34 65.5759 4.34ZM66.0959 15.24C65.4159 14.8933 64.9426 14.5 64.6759 14.06C64.4093 13.6067 64.2759 12.98 64.2759 12.18V5.6H66.8759V12.1C66.8759 12.46 66.9426 12.7533 67.0759 12.98C67.2226 13.2067 67.4759 13.4533 67.8359 13.72L66.0959 15.24ZM73.8114 15.24C72.4247 15.24 71.3581 14.92 70.6114 14.28C69.8647 13.64 69.4914 12.7267 69.4914 11.54V9.06C69.4914 7.87333 69.8647 6.96 70.6114 6.32C71.3581 5.68 72.4247 5.36 73.8114 5.36C75.5447 5.36 76.7847 5.88667 77.5314 6.94L75.7514 8.38C75.4314 8.00667 75.1381 7.74667 74.8714 7.6C74.6047 7.44 74.2514 7.36 73.8114 7.36C73.2647 7.36 72.8381 7.50667 72.5314 7.8C72.2381 8.09333 72.0914 8.51333 72.0914 9.06V11.54C72.0914 12.0867 72.2381 12.5067 72.5314 12.8C72.8381 13.0933 73.2647 13.24 73.8114 13.24C74.2514 13.24 74.6047 13.1667 74.8714 13.02C75.1381 12.86 75.4314 12.5933 75.7514 12.22L77.5314 13.66C77.1581 14.1933 76.6781 14.5933 76.0914 14.86C75.5047 15.1133 74.7447 15.24 73.8114 15.24ZM96.8728 15H93.8928L92.9728 11.9C92.7861 11.26 92.5995 10.7667 92.4128 10.42C92.2261 10.06 91.9728 9.78667 91.6528 9.6C91.3328 9.41333 90.9061 9.32 90.3728 9.32H88.3528V15H85.5328V0.999999H91.1928C92.8995 0.999999 94.1595 1.34 94.9728 2.02C95.7861 2.68667 96.1928 3.73333 96.1928 5.16C96.1928 6.08 95.9461 6.82 95.4528 7.38C94.9728 7.94 94.3061 8.3 93.4528 8.46C94.1328 8.68667 94.6461 9.08 94.9928 9.64C95.3395 10.2 95.6595 10.96 95.9528 11.92L96.8728 15ZM91.2728 7.12C91.8861 7.12 92.3861 6.96 92.7728 6.64C93.1728 6.30667 93.3728 5.81333 93.3728 5.16C93.3728 4.50667 93.1728 4.02 92.7728 3.7C92.3861 3.36667 91.8861 3.2 91.2728 3.2H88.3528V7.12H91.2728ZM102.856 13.28C103.349 13.28 103.749 13.22 104.056 13.1C104.362 12.9667 104.696 12.74 105.056 12.42L106.596 13.82C105.822 14.7667 104.576 15.24 102.856 15.24C101.322 15.24 100.216 14.9533 99.5356 14.38C98.8556 13.7933 98.5156 12.8467 98.5156 11.54V8.68C98.5156 7.65333 98.8823 6.84667 99.6156 6.26C100.362 5.66 101.376 5.36 102.656 5.36C103.976 5.36 105.009 5.68 105.756 6.32C106.502 6.94667 106.876 7.86667 106.876 9.08C106.876 9.66667 106.822 10.12 106.716 10.44C106.622 10.76 106.429 11 106.136 11.16C105.842 11.3067 105.416 11.38 104.856 11.38H101.096V11.56C101.096 12.7067 101.682 13.28 102.856 13.28ZM102.656 7.32C102.162 7.32 101.776 7.46667 101.496 7.76C101.229 8.04 101.096 8.41333 101.096 8.88V9.6H103.376C103.722 9.6 103.962 9.54667 104.096 9.44C104.229 9.33333 104.296 9.14667 104.296 8.88C104.296 8.37333 104.156 7.98667 103.876 7.72C103.596 7.45333 103.189 7.32 102.656 7.32ZM110.271 4.34C109.858 4.34 109.505 4.19333 109.211 3.9C108.918 3.60667 108.771 3.25333 108.771 2.84C108.771 2.44 108.918 2.09333 109.211 1.8C109.505 1.49333 109.858 1.34 110.271 1.34C110.671 1.34 111.018 1.49333 111.311 1.8C111.618 2.09333 111.771 2.44 111.771 2.84C111.771 3.25333 111.618 3.60667 111.311 3.9C111.018 4.19333 110.671 4.34 110.271 4.34ZM110.791 15.24C110.111 14.8933 109.638 14.5 109.371 14.06C109.105 13.6067 108.971 12.98 108.971 12.18V5.6H111.571V12.1C111.571 12.46 111.638 12.7533 111.771 12.98C111.918 13.2067 112.171 13.4533 112.531 13.72L110.791 15.24ZM119.909 5.36C120.936 5.36 121.722 5.64 122.269 6.2C122.829 6.76 123.109 7.56 123.109 8.6V15H120.509V8.84C120.509 8.38667 120.382 8.02667 120.129 7.76C119.889 7.49333 119.562 7.36 119.149 7.36C118.269 7.36 117.636 7.88 117.249 8.92V15H114.649V8.5C114.649 8.14 114.576 7.84667 114.429 7.62C114.296 7.39333 114.049 7.14667 113.689 6.88L115.429 5.36C115.856 5.57333 116.189 5.8 116.429 6.04C116.682 6.28 116.876 6.56 117.009 6.88C117.289 6.42667 117.662 6.06 118.129 5.78C118.609 5.5 119.202 5.36 119.909 5.36ZM128.832 15.24C128.086 15.24 127.479 15.1667 127.012 15.02C126.546 14.8867 126.172 14.7 125.892 14.46C125.612 14.22 125.319 13.8933 125.012 13.48L126.632 12.1C126.979 12.5267 127.299 12.8267 127.592 13C127.899 13.16 128.312 13.24 128.832 13.24C129.406 13.24 129.819 13.1733 130.072 13.04C130.339 12.8933 130.472 12.6667 130.472 12.36C130.472 12.0667 130.306 11.84 129.972 11.68C129.652 11.52 129.019 11.36 128.072 11.2C126.206 10.84 125.272 9.82667 125.272 8.16C125.272 7.30667 125.612 6.62667 126.292 6.12C126.972 5.61333 127.879 5.36 129.012 5.36C129.959 5.36 130.706 5.5 131.252 5.78C131.812 6.04667 132.266 6.44 132.612 6.96L131.012 8.32C130.666 7.97333 130.352 7.72667 130.072 7.58C129.792 7.43333 129.439 7.36 129.012 7.36C128.159 7.36 127.732 7.66 127.732 8.26C127.732 8.54 127.872 8.75333 128.152 8.9C128.446 9.04667 128.812 9.16 129.252 9.24C130.079 9.42667 130.732 9.62 131.212 9.82C131.706 10.0067 132.112 10.3067 132.432 10.72C132.766 11.1333 132.932 11.7 132.932 12.42C132.932 13.38 132.592 14.0933 131.912 14.56C131.232 15.0133 130.206 15.24 128.832 15.24ZM143.288 12.06C143.288 12.42 143.355 12.7133 143.488 12.94C143.635 13.1667 143.888 13.4133 144.248 13.68L142.508 15.2C142.068 14.9733 141.721 14.7333 141.468 14.48C141.215 14.2267 141.021 13.9267 140.888 13.58C140.275 14.6867 139.321 15.24 138.028 15.24C136.975 15.24 136.161 14.96 135.588 14.4C135.015 13.84 134.728 13.04 134.728 12V5.6H137.328V11.76C137.328 12.2133 137.455 12.5733 137.708 12.84C137.975 13.1067 138.335 13.24 138.788 13.24C139.668 13.24 140.301 12.6667 140.688 11.52V5.6H143.288V12.06ZM151.274 5.36C151.967 5.36 152.554 5.54667 153.034 5.92L152.394 8.08C152.114 7.89333 151.847 7.76 151.594 7.68C151.34 7.6 151.027 7.56 150.654 7.56C149.774 7.56 149.14 8.14667 148.754 9.32V15H146.154V8.5C146.154 8.14 146.08 7.84667 145.934 7.62C145.8 7.39333 145.554 7.14667 145.194 6.88L146.934 5.36C147.387 5.6 147.747 5.85333 148.014 6.12C148.28 6.38667 148.474 6.70667 148.594 7.08C148.86 6.56 149.214 6.14667 149.654 5.84C150.094 5.52 150.634 5.36 151.274 5.36ZM161.898 12.1C161.898 12.46 161.965 12.7533 162.098 12.98C162.245 13.2067 162.498 13.4533 162.858 13.72L161.118 15.24C160.358 14.8533 159.838 14.3667 159.558 13.78C159.265 14.1933 158.865 14.54 158.358 14.82C157.851 15.1 157.225 15.24 156.478 15.24C155.531 15.24 154.778 15 154.218 14.52C153.658 14.0267 153.378 13.3333 153.378 12.44C153.378 11.64 153.585 11.0267 153.998 10.6C154.425 10.16 154.911 9.86 155.458 9.7C156.005 9.54 156.611 9.42667 157.278 9.36L158.238 9.26C158.625 9.22 158.891 9.15333 159.038 9.06C159.198 8.96667 159.285 8.81333 159.298 8.6C159.271 8.2 159.138 7.86 158.898 7.58C158.671 7.3 158.231 7.16 157.578 7.16C157.151 7.16 156.778 7.24 156.458 7.4C156.138 7.56 155.811 7.82 155.478 8.18L153.698 6.94C154.085 6.43333 154.571 6.04667 155.158 5.78C155.745 5.5 156.551 5.36 157.578 5.36C160.458 5.36 161.898 6.52667 161.898 8.86V12.1ZM157.138 13.38C157.831 13.38 158.365 13.2133 158.738 12.88C159.111 12.5333 159.298 12.1133 159.298 11.62V10.78C159.085 10.86 158.678 10.9333 158.078 11L157.478 11.06C157.025 11.1 156.645 11.2067 156.338 11.38C156.031 11.54 155.878 11.8467 155.878 12.3C155.878 12.6467 155.991 12.9133 156.218 13.1C156.445 13.2867 156.751 13.38 157.138 13.38ZM169.878 5.36C170.904 5.36 171.691 5.64 172.238 6.2C172.798 6.76 173.078 7.56 173.078 8.6V15H170.478V8.84C170.478 8.38667 170.351 8.02667 170.098 7.76C169.858 7.49333 169.531 7.36 169.118 7.36C168.238 7.36 167.604 7.88 167.218 8.92V15H164.618V8.5C164.618 8.14 164.544 7.84667 164.398 7.62C164.264 7.39333 164.018 7.14667 163.658 6.88L165.398 5.36C165.824 5.57333 166.158 5.8 166.398 6.04C166.651 6.28 166.844 6.56 166.978 6.88C167.258 6.42667 167.631 6.06 168.098 5.78C168.578 5.5 169.171 5.36 169.878 5.36ZM179.641 15.24C178.254 15.24 177.188 14.92 176.441 14.28C175.694 13.64 175.321 12.7267 175.321 11.54V9.06C175.321 7.87333 175.694 6.96 176.441 6.32C177.188 5.68 178.254 5.36 179.641 5.36C181.374 5.36 182.614 5.88667 183.361 6.94L181.581 8.38C181.261 8.00667 180.968 7.74667 180.701 7.6C180.434 7.44 180.081 7.36 179.641 7.36C179.094 7.36 178.668 7.50667 178.361 7.8C178.068 8.09333 177.921 8.51333 177.921 9.06V11.54C177.921 12.0867 178.068 12.5067 178.361 12.8C178.668 13.0933 179.094 13.24 179.641 13.24C180.081 13.24 180.434 13.1667 180.701 13.02C180.968 12.86 181.261 12.5933 181.581 12.22L183.361 13.66C182.988 14.1933 182.508 14.5933 181.921 14.86C181.334 15.1133 180.574 15.24 179.641 15.24ZM189.147 13.28C189.64 13.28 190.04 13.22 190.347 13.1C190.654 12.9667 190.987 12.74 191.347 12.42L192.887 13.82C192.114 14.7667 190.867 15.24 189.147 15.24C187.614 15.24 186.507 14.9533 185.827 14.38C185.147 13.7933 184.807 12.8467 184.807 11.54V8.68C184.807 7.65333 185.174 6.84667 185.907 6.26C186.654 5.66 187.667 5.36 188.947 5.36C190.267 5.36 191.3 5.68 192.047 6.32C192.794 6.94667 193.167 7.86667 193.167 9.08C193.167 9.66667 193.114 10.12 193.007 10.44C192.914 10.76 192.72 11 192.427 11.16C192.134 11.3067 191.707 11.38 191.147 11.38H187.387V11.56C187.387 12.7067 187.974 13.28 189.147 13.28ZM188.947 7.32C188.454 7.32 188.067 7.46667 187.787 7.76C187.52 8.04 187.387 8.41333 187.387 8.88V9.6H189.667C190.014 9.6 190.254 9.54667 190.387 9.44C190.52 9.33333 190.587 9.14667 190.587 8.88C190.587 8.37333 190.447 7.98667 190.167 7.72C189.887 7.45333 189.48 7.32 188.947 7.32ZM196.46 12.18C196.954 12.18 197.334 12.3467 197.6 12.68C197.88 13 198.02 13.46 198.02 14.06C198.02 14.8333 197.847 15.5267 197.5 16.14C197.154 16.7533 196.64 17.3467 195.96 17.92L195.18 17.18C195.994 16.5133 196.454 15.8333 196.56 15.14C196.387 15.22 196.18 15.26 195.94 15.26C195.594 15.26 195.32 15.1467 195.12 14.92C194.92 14.68 194.82 14.3533 194.82 13.94C194.82 13.5 194.974 13.1 195.28 12.74C195.6 12.3667 195.994 12.18 196.46 12.18ZM210.806 15C209.099 15 207.872 14.6267 207.126 13.88C206.392 13.1333 206.026 12.0533 206.026 10.64V0.999999H208.846V10.64C208.846 11.3733 209.006 11.92 209.326 12.28C209.646 12.6267 210.139 12.8 210.806 12.8H215.286V15H210.806ZM221.913 15C220.206 15 218.979 14.6267 218.233 13.88C217.499 13.1333 217.133 12.0533 217.133 10.64V0.999999H219.953V10.64C219.953 11.3733 220.113 11.92 220.433 12.28C220.753 12.6267 221.246 12.8 221.913 12.8H226.393V15H221.913ZM233.314 15.24C231.434 15.24 230.001 14.8133 229.014 13.96C228.028 13.0933 227.534 11.82 227.534 10.14V5.86C227.534 4.18 228.028 2.91333 229.014 2.06C230.001 1.19333 231.434 0.76 233.314 0.76C234.621 0.76 235.688 0.98 236.514 1.42C237.354 1.84667 238.021 2.49333 238.514 3.36L236.494 4.76C236.081 4.12 235.648 3.66 235.194 3.38C234.754 3.1 234.128 2.96 233.314 2.96C232.288 2.96 231.534 3.20667 231.054 3.7C230.588 4.18 230.354 4.9 230.354 5.86V10.14C230.354 11.1 230.588 11.8267 231.054 12.32C231.534 12.8 232.288 13.04 233.314 13.04C234.194 13.04 234.874 12.8933 235.354 12.6C235.848 12.2933 236.288 11.8067 236.674 11.14L238.674 12.62C238.248 13.2333 237.808 13.7267 237.354 14.1C236.901 14.4733 236.348 14.76 235.694 14.96C235.054 15.1467 234.261 15.24 233.314 15.24Z" fill="#4C4E64" fill-opacity="0.87"/>
</svg>
