<svg width="20" height="21" viewBox="0 0 20 21" fill="none" xmlns="http://www.w3.org/2000/svg">
    <path d="M8.22918 12.8278L10.7292 13.6611C10.7292 13.6611 16.9792 12.4111 17.8125 12.4111C18.6459 12.4111 18.6459 13.2444 17.8125 14.0778C16.9792 14.9111 14.0625 17.4111 11.5625 17.4111C9.06252 17.4111 7.39585 16.1611 5.72918 16.1611C4.06251 16.1611 1.5625 16.1611 1.5625 16.1611" stroke="#859BA6" stroke-width="1.64472" stroke-linecap="round" stroke-linejoin="round"/>
    <path d="M1.5625 11.1611C2.39584 10.3278 4.06251 9.07779 5.72918 9.07779C7.39585 9.07779 11.3542 10.7445 11.9792 11.5778C12.6042 12.4111 10.7292 13.6611 10.7292 13.6611" stroke="#859BA6" stroke-width="1.64472" stroke-linecap="round" stroke-linejoin="round"/>
    <path d="M12.9402 8.24444L17.6542 3.5304" stroke="#859BA6" stroke-width="1.64472" stroke-linecap="round"/>
    <path d="M12.9398 3.53009L17.6539 8.24416" stroke="#859BA6" stroke-width="1.64472" stroke-linecap="round"/>
</svg>